#!OML:ASF H:\LiuWeirdWalks\Patient Classification 1\Patient 1\Session 1\male.ASF
:FULLY-SPECIFIED
:DEGREES
268
root 1.96826 17.918 -29.2116 -0.623063 12.0904 1.60533
lowerback 5.94113 0.149211 -7.78601
upperback 1.82613 -0.214154 2.1666
thorax -1.39619 -0.10762 6.67064
lowerneck -24.4149 0.328439 0.72679
upperneck 26.2925 1.53323 -4.17611
head 12.9015 0.163183 -1.46467
rclavicle -3.91109e-014 2.38542e-015
rhumerus -32.6914 -12.1655 -73.4815
rradius 25.5565
rwrist -4.70917
rhand -17.1299 -3.76465
rfingers 7.12502
rthumb 9.10996 -33.5479
lclavicle -3.91109e-014 2.38542e-015
lhumerus -37.9938 6.98951 84.5828
lradius 29.9545
lwrist 8.67466
lhand -12.2531 0.476962
lfingers 7.12502
lthumb 13.8131 29.9983
rfemur -33.2763 -7.04183 9.52268
rtibia 28.7135
rfoot -11.1277 -21.742
rtoes -10.1136
lfemur 4.88151 -3.96029 -26.4393
ltibia 14.6708
lfoot -10.6926 6.57368
ltoes -23.9117
269
root 1.96154 17.9179 -29.1835 -0.561251 12.1574 1.63987
lowerback 5.88916 0.0890982 -7.85026
upperback 1.83185 -0.292244 2.2524
thorax -1.34643 -0.149252 6.80369
lowerneck -24.4095 0.357507 0.434256
upperneck 26.2322 1.67626 -4.13423
head 12.8788 0.202267 -1.37236
rclavicle 2.39039e-014 3.57812e-014
rhumerus -32.55 -11.8207 -73.4687
rradius 25.4876
rwrist -4.73395
rhand -17.1143 -3.75743
rfingers 7.12502
rthumb 9.12503 -33.54
lclavicle 2.39039e-014 3.57812e-014
lhumerus -38.0816 7.4109 84.5683
lradius 30.0284
lwrist 8.67938
lhand -12.3251 0.526008
lfingers 7.12502
lthumb 13.7437 30.0521
rfemur -33.1848 -6.98732 9.50269
rtibia 28.2405
rfoot -10.9929 -21.9467
rtoes -10.0982
lfemur 5.01353 -4.03372 -26.4425
ltibia 14.4731
lfoot -10.6469 6.57715
ltoes -23.9156
270
root 1.95502 17.917 -29.1553 -0.501207 12.2004 1.68952
lowerback 5.83413 0.089451 -7.90322
upperback 1.83893 -0.289794 2.28172
thorax -1.30799 -0.150051 6.86459
lowerneck -24.3836 0.3825 0.319291
upperneck 26.1375 1.75283 -4.131
head 12.837 0.225895 -1.33638
rclavicle 2.13694e-014 -1.07344e-014
rhumerus -32.4827 -11.6836 -73.4557
rradius 25.4371
rwrist -4.73171
rhand -17.1133 -3.77642
rfingers 7.12502
rthumb 9.12604 -33.559
lclavicle 2.13694e-014 -1.07344e-014
lhumerus -38.138 7.61917 84.5422
lradius 30.0945
lwrist 8.726
lhand -12.3992 0.564282
lfingers 7.12502
lthumb 13.6723 30.0952
rfemur -33.1131 -6.92559 9.47246
rtibia 27.8341
rfoot -10.889 -22.1114
rtoes -10.1076
lfemur 5.15361 -4.1078 -26.4707
ltibia 14.2732
lfoot -10.5973 6.61474
ltoes -23.8351
271
root 1.94867 17.9154 -29.1266 -0.437112 12.2319 1.76597
lowerback 5.77229 0.168382 -7.94285
upperback 1.83765 -0.182985 2.22483
thorax -1.29371 -0.097072 6.81903
lowerneck -24.3064 0.341379 0.375915
upperneck 26.0672 1.67139 -4.14203
head 12.791 0.196213 -1.36327
rclavicle -1.37658e-014 2.46493e-014
rhumerus -32.5545 -11.8161 -73.4544
rradius 25.4356
rwrist -4.71881
rhand -17.1175 -3.8128
rfingers 7.12502
rthumb 9.12194 -33.5955
lclavicle -1.37658e-014 2.46493e-014
lhumerus -38.1652 7.51719 84.4908
lradius 30.1412
lwrist 8.81887
lhand -12.4571 0.552542
lfingers 7.12502
lthumb 13.6165 30.0872
rfemur -33.0563 -6.87135 9.41962
rtibia 27.4829
rfoot -10.8202 -22.2392
rtoes -10.1122
lfemur 5.29765 -4.19026 -26.5354
ltibia 14.077
lfoot -10.5482 6.68332
ltoes -23.676
272
root 1.94248 17.9135 -29.0973 -0.381227 12.2474 1.84812
lowerback 5.71492 0.304765 -7.95633
upperback 1.83366 0.00048585 2.10899
thorax -1.29843 -0.00467131 6.69072
lowerneck -24.2186 0.255709 0.532937
upperneck 25.9988 1.48291 -4.14138
head 12.7405 0.131413 -1.42144
rclavicle 3.37934e-014 2.14687e-014
rhumerus -32.7139 -12.1547 -73.4577
rradius 25.4547
rwrist -4.66908
rhand -17.1269 -3.8706
rfingers 7.12502
rthumb 9.11294 -33.6537
lclavicle 3.37934e-014 2.14687e-014
lhumerus -38.1767 7.20241 84.4168
lradius 30.1823
lwrist 8.94089
lhand -12.4959 0.503023
lfingers 7.12502
lthumb 13.5791 30.0402
rfemur -32.9991 -6.81097 9.36431
rtibia 27.1752
rfoot -10.7659 -22.3283
rtoes -10.0988
lfemur 5.45576 -4.26761 -26.6116
ltibia 13.8818
lfoot -10.5037 6.7748
ltoes -23.4689
273
root 1.93575 17.9117 -29.0674 -0.331176 12.2653 1.92395
lowerback 5.66353 0.452028 -7.96577
upperback 1.82546 0.197962 1.98511
thorax -1.31255 0.0952578 6.55082
lowerneck -24.1165 0.124855 0.659508
upperneck 25.9888 1.23611 -4.11306
head 12.7081 0.0411278 -1.47476
rclavicle 2.07233e-014 -4.77083e-015
rhumerus -32.8901 -12.5435 -73.4532
rradius 25.4577
rwrist -4.58329
rhand -17.1153 -3.91454
rfingers 7.12502
rthumb 9.12413 -33.6972
lclavicle 2.07233e-014 -4.77083e-015
lhumerus -38.1963 6.85312 84.3305
lradius 30.2219
lwrist 9.0631
lhand -12.5202 0.442436
lfingers 7.12502
lthumb 13.5557 29.9812
rfemur -32.9377 -6.74198 9.31526
rtibia 26.9019
rfoot -10.7098 -22.3941
rtoes -10.0723
lfemur 5.61695 -4.34311 -26.6794
ltibia 13.6943
lfoot -10.4669 6.86946
ltoes -23.2004
274
root 1.92868 17.9097 -29.0368 -0.283537 12.2736 1.99464
lowerback 5.61143 0.634512 -7.93416
upperback 1.81576 0.443848 1.81572
thorax -1.33478 0.219791 6.33594
lowerneck -23.9978 -0.0260705 0.8674
upperneck 25.956 0.927678 -4.08326
head 12.661 -0.0676124 -1.55126
rclavicle 1.28713e-014 -2.38542e-015
rhumerus -33.1206 -13.0555 -73.4711
rradius 25.4805
rwrist -4.49228
rhand -17.1055 -3.99062
rfingers 7.12502
rthumb 9.13354 -33.7728
lclavicle 1.28713e-014 -2.38542e-015
lhumerus -38.1922 6.3655 84.2165
lradius 30.2469
lwrist 9.20221
lhand -12.5448 0.391335
lfingers 7.12502
lthumb 13.5319 29.9316
rfemur -32.8761 -6.66725 9.27635
rtibia 26.6551
rfoot -10.6205 -22.4262
rtoes -10.014
lfemur 5.77568 -4.39988 -26.7385
ltibia 13.5193
lfoot -10.4415 6.9623
ltoes -23.0189
